<svg width="654" height="654" viewBox="0 0 654 654" fill="none" xmlns="http://www.w3.org/2000/svg">
<mask id="mask0_241_354" style="mask-type:luminance" maskUnits="userSpaceOnUse" x="55" y="153" width="366" height="332">
<path d="M55.8086 153.472H420.305V484.832H55.8086V153.472Z" fill="white"/>
</mask>
<g mask="url(#mask0_241_354)">
<mask id="mask1_241_354" style="mask-type:luminance" maskUnits="userSpaceOnUse" x="55" y="152" width="366" height="333">
<path d="M57.6282 484.001L55.7207 155.018L418.97 152.913L420.878 481.889L57.6282 484.001Z" fill="white"/>
</mask>
<g mask="url(#mask1_241_354)">
<mask id="mask2_241_354" style="mask-type:luminance" maskUnits="userSpaceOnUse" x="55" y="152" width="366" height="333">
<path d="M57.6282 484.001L55.7207 155.018L418.97 152.913L420.878 481.889L57.6282 484.001Z" fill="white"/>
</mask>
<g mask="url(#mask2_241_354)">
<mask id="mask3_241_354" style="mask-type:luminance" maskUnits="userSpaceOnUse" x="56" y="154" width="364" height="330">
<path d="M247.888 221.904C244.836 221.917 241.79 222.047 238.752 222.292C235.714 222.537 232.689 222.891 229.671 223.355C226.66 223.825 223.669 224.397 220.692 225.085C217.722 225.773 214.779 226.57 211.87 227.476C208.954 228.382 206.079 229.397 203.238 230.515C200.404 231.632 197.611 232.851 194.859 234.18C192.114 235.501 189.416 236.925 186.773 238.451C184.129 239.977 181.541 241.598 179.013 243.315C176.493 245.032 174.033 246.837 171.635 248.731C169.244 250.632 166.928 252.614 164.68 254.685C162.432 256.756 160.258 258.902 158.174 261.13C156.082 263.364 154.079 265.667 152.158 268.045C150.237 270.422 148.405 272.868 146.661 275.382C144.923 277.895 143.275 280.471 141.722 283.107C140.168 285.743 138.717 288.434 137.362 291.173C136.006 293.918 134.752 296.705 133.601 299.546C132.45 302.38 131.407 305.254 130.467 308.163C129.527 311.079 128.696 314.022 127.974 316.999C127.252 319.969 126.639 322.967 126.135 325.992C125.63 329.01 125.235 332.041 124.956 335.093C124.677 338.138 124.506 341.197 124.452 344.256C124.391 347.322 124.445 350.38 124.615 353.439C124.786 356.491 125.065 359.543 125.453 362.575C125.842 365.613 126.346 368.631 126.959 371.629C127.572 374.633 128.294 377.603 129.125 380.553C129.956 383.496 130.89 386.412 131.939 389.287C132.981 392.161 134.126 394.995 135.379 397.789C136.633 400.582 137.988 403.32 139.439 406.018C140.89 408.709 142.444 411.339 144.092 413.921C145.734 416.496 147.471 419.01 149.304 421.455C151.136 423.908 153.058 426.285 155.06 428.588C157.063 430.897 159.155 433.125 161.321 435.278L167.643 428.847C166.301 427.518 164.993 426.156 163.719 424.759C162.445 423.363 161.205 421.939 160 420.481C158.801 419.023 157.629 417.538 156.498 416.026C155.367 414.507 154.27 412.967 153.214 411.4C152.158 409.833 151.143 408.239 150.162 406.618C149.188 405.003 148.248 403.361 147.349 401.692C146.449 400.03 145.598 398.347 144.78 396.637C143.963 394.934 143.193 393.204 142.457 391.46C141.728 389.716 141.04 387.951 140.393 386.173C139.753 384.395 139.146 382.604 138.588 380.791C138.036 378.986 137.518 377.167 137.055 375.328C136.585 373.495 136.163 371.649 135.781 369.796C135.406 367.943 135.073 366.083 134.786 364.21C134.5 362.336 134.255 360.463 134.058 358.576C133.867 356.696 133.717 354.809 133.615 352.922C133.513 351.028 133.451 349.134 133.444 347.247C133.431 345.353 133.465 343.459 133.547 341.565C133.628 339.678 133.758 337.784 133.935 335.904C134.105 334.017 134.33 332.137 134.596 330.263C134.861 328.39 135.168 326.523 135.529 324.663C135.883 322.803 136.285 320.957 136.735 319.118C137.184 317.279 137.675 315.453 138.213 313.634C138.751 311.822 139.33 310.023 139.957 308.238C140.584 306.453 141.252 304.682 141.96 302.925C142.675 301.174 143.425 299.437 144.222 297.727C145.019 296.01 145.857 294.314 146.736 292.638C147.614 290.962 148.534 289.313 149.495 287.685C150.455 286.057 151.457 284.449 152.492 282.869C153.534 281.288 154.611 279.735 155.721 278.209C156.839 276.683 157.99 275.184 159.175 273.713C160.367 272.241 161.587 270.804 162.847 269.393C164.101 267.983 165.395 266.607 166.723 265.258C168.045 263.916 169.401 262.601 170.791 261.321C172.18 260.04 173.604 258.8 175.055 257.587C176.506 256.382 177.985 255.21 179.49 254.072C181.002 252.934 182.535 251.838 184.095 250.775C185.655 249.712 187.243 248.697 188.857 247.709C190.465 246.728 192.1 245.788 193.755 244.882C195.418 243.983 197.094 243.124 198.797 242.307C200.493 241.483 202.21 240.706 203.954 239.977C205.691 239.241 207.442 238.546 209.213 237.899C210.984 237.252 212.769 236.653 214.574 236.087C216.373 235.529 218.185 235.018 220.011 234.548C221.837 234.077 223.676 233.648 225.522 233.274C227.368 232.892 229.221 232.558 231.088 232.265C232.948 231.979 234.821 231.741 236.695 231.543C238.568 231.346 240.448 231.196 242.329 231.094C244.216 230.991 246.096 230.93 247.983 230.923C249.87 230.91 251.75 230.944 253.637 231.025C255.518 231.114 257.398 231.237 259.278 231.414C261.152 231.591 263.025 231.809 264.892 232.081C266.758 232.347 268.618 232.66 270.471 233.015C272.317 233.376 274.163 233.778 275.989 234.227C277.822 234.677 279.641 235.174 281.453 235.712C283.258 236.251 285.05 236.837 286.828 237.463C288.606 238.09 290.37 238.764 292.114 239.48C293.858 240.195 295.589 240.951 297.299 241.748C299.002 242.552 300.691 243.39 302.36 244.276C304.029 245.155 305.671 246.081 307.299 247.048C308.921 248.009 310.515 249.01 312.089 250.053C313.662 251.102 315.209 252.178 316.728 253.302C318.254 254.42 319.746 255.571 321.211 256.77C322.668 257.962 324.106 259.188 325.509 260.449C326.913 261.716 328.289 263.01 329.624 264.345L365.778 300.227L372.093 293.796L335.898 257.962C330.114 252.178 323.82 247.028 317.021 242.505C310.222 237.981 303.042 234.173 295.487 231.073C287.938 227.98 280.152 225.664 272.14 224.118C264.129 222.571 256.042 221.835 247.888 221.904ZM248.146 267.152C244.257 267.179 240.394 267.486 236.545 268.085C232.703 268.678 228.922 269.557 225.202 270.708C221.489 271.866 217.879 273.29 214.37 274.98C210.862 276.669 207.496 278.611 204.274 280.798C201.052 282.991 198.006 285.403 195.138 288.046C192.277 290.683 189.613 293.523 187.168 296.555C184.715 299.586 182.501 302.788 180.519 306.147C178.536 309.512 176.813 313 175.348 316.618C173.877 320.235 172.684 323.941 171.758 327.736C170.831 331.537 170.191 335.379 169.837 339.269C169.476 343.159 169.401 347.049 169.619 350.953C169.83 354.856 170.327 358.719 171.104 362.548C171.887 366.369 172.943 370.123 174.279 373.788C175.607 377.46 177.201 381.016 179.054 384.45C180.907 387.883 182.999 391.167 185.335 394.287C187.672 397.414 190.22 400.35 192.986 403.096L199.321 396.665C197.686 395.043 196.133 393.347 194.668 391.569C193.197 389.798 191.821 387.958 190.533 386.044C189.246 384.136 188.053 382.168 186.963 380.137C185.867 378.114 184.872 376.036 183.98 373.911C183.087 371.785 182.304 369.619 181.622 367.419C180.941 365.211 180.369 362.984 179.912 360.722C179.449 358.467 179.102 356.185 178.863 353.896C178.618 351.6 178.495 349.297 178.482 346.995C178.468 344.685 178.564 342.383 178.782 340.087C178.993 337.791 179.313 335.509 179.749 333.247C180.185 330.985 180.73 328.744 181.384 326.537C182.038 324.323 182.794 322.149 183.659 320.01C184.525 317.878 185.499 315.787 186.568 313.75C187.638 311.706 188.803 309.723 190.07 307.802C191.337 305.874 192.693 304.015 194.137 302.23C195.588 300.438 197.114 298.721 198.729 297.079C200.343 295.438 202.033 293.884 203.804 292.406C205.568 290.935 207.408 289.552 209.308 288.264C211.209 286.97 213.171 285.771 215.188 284.674C217.211 283.577 219.275 282.582 221.394 281.683C223.512 280.791 225.665 280.001 227.859 279.319C230.052 278.638 232.273 278.066 234.528 277.603C236.776 277.139 239.045 276.792 241.327 276.553C243.616 276.315 245.905 276.186 248.201 276.172C250.497 276.158 252.786 276.26 255.075 276.472C257.364 276.69 259.632 277.01 261.887 277.453C264.142 277.889 266.37 278.434 268.577 279.094C270.778 279.748 272.937 280.511 275.069 281.383C277.195 282.255 279.273 283.23 281.303 284.306C283.333 285.382 285.309 286.554 287.223 287.828C289.144 289.095 290.99 290.458 292.775 291.916C294.56 293.367 296.27 294.906 297.898 296.528L334.1 332.457L340.415 326.026L304.22 290.097C300.535 286.418 296.522 283.141 292.189 280.259C287.857 277.378 283.285 274.952 278.469 272.984C273.659 271.015 268.7 269.543 263.597 268.562C258.495 267.581 253.344 267.111 248.146 267.152ZM248.017 244.487C245.524 244.501 243.03 244.61 240.544 244.807C238.057 245.012 235.584 245.298 233.118 245.686C230.652 246.067 228.206 246.538 225.774 247.103C223.342 247.668 220.937 248.322 218.553 249.058C216.169 249.801 213.818 250.632 211.495 251.545C209.172 252.464 206.89 253.466 204.642 254.549C202.394 255.632 200.186 256.797 198.02 258.044C195.861 259.291 193.742 260.619 191.678 262.022C189.613 263.426 187.604 264.904 185.642 266.457C183.687 268.011 181.786 269.632 179.953 271.328C178.114 273.018 176.336 274.782 174.626 276.601C172.916 278.427 171.281 280.314 169.707 282.262C168.134 284.204 166.635 286.207 165.211 288.264C163.787 290.321 162.438 292.427 161.171 294.579C159.897 296.739 158.712 298.939 157.602 301.181C156.491 303.422 155.469 305.704 154.529 308.027C153.582 310.343 152.731 312.694 151.961 315.078C151.191 317.462 150.51 319.874 149.917 322.306C149.324 324.738 148.82 327.191 148.411 329.664C147.996 332.13 147.676 334.616 147.444 337.11C147.212 339.603 147.076 342.103 147.029 344.603C146.981 347.11 147.022 349.611 147.158 352.118C147.294 354.618 147.526 357.111 147.846 359.591C148.159 362.078 148.568 364.55 149.072 367.003C149.57 369.455 150.162 371.888 150.837 374.299C151.518 376.711 152.281 379.095 153.133 381.445C153.991 383.803 154.924 386.119 155.946 388.408C156.975 390.69 158.078 392.931 159.264 395.139C160.449 397.339 161.716 399.499 163.065 401.604C164.407 403.715 165.831 405.773 167.33 407.776C168.822 409.779 170.389 411.727 172.03 413.614C173.672 415.508 175.375 417.327 177.147 419.091L183.482 412.756C181.411 410.596 179.442 408.341 177.589 405.984C175.736 403.634 173.999 401.202 172.378 398.681C170.756 396.16 169.265 393.565 167.895 390.901C166.519 388.231 165.279 385.506 164.176 382.719C163.065 379.933 162.098 377.106 161.26 374.224C160.422 371.343 159.727 368.427 159.175 365.484C158.623 362.534 158.208 359.564 157.942 356.58C157.67 353.589 157.547 350.598 157.567 347.594C157.588 344.597 157.751 341.606 158.058 338.622C158.365 335.638 158.814 332.675 159.407 329.732C160 326.796 160.735 323.887 161.607 321.019C162.479 318.151 163.488 315.33 164.632 312.564C165.777 309.792 167.05 307.08 168.454 304.437C169.864 301.787 171.39 299.212 173.045 296.712C174.694 294.218 176.465 291.807 178.352 289.477C180.239 287.147 182.229 284.919 184.327 282.787C186.432 280.655 188.626 278.624 190.921 276.703C193.217 274.789 195.602 272.984 198.068 271.294C200.541 269.605 203.082 268.038 205.705 266.6C208.321 265.156 211.005 263.848 213.75 262.663C216.496 261.484 219.296 260.442 222.143 259.529C224.991 258.623 227.872 257.853 230.795 257.22C233.711 256.593 236.661 256.102 239.624 255.762C242.594 255.421 245.571 255.217 248.555 255.169C251.546 255.114 254.53 255.203 257.507 255.435C260.484 255.673 263.441 256.055 266.384 256.572C269.327 257.097 272.235 257.765 275.11 258.568C277.992 259.372 280.826 260.312 283.612 261.396C286.399 262.479 289.124 263.691 291.794 265.033C294.465 266.382 297.067 267.854 299.594 269.448C302.122 271.049 304.568 272.766 306.932 274.598C309.295 276.431 311.564 278.379 313.737 280.437L349.912 316.338L356.234 309.907L320.059 274.006C315.325 269.278 310.167 265.068 304.602 261.368C299.036 257.669 293.157 254.556 286.978 252.022C280.792 249.494 274.422 247.6 267.869 246.34C261.308 245.08 254.693 244.48 248.017 244.535V244.487ZM247.622 176.6C244.856 176.621 242.083 176.703 239.317 176.859C236.552 177.009 233.793 177.234 231.04 177.52C228.281 177.813 225.536 178.167 222.804 178.596C220.065 179.019 217.34 179.509 214.629 180.068C211.911 180.627 209.213 181.253 206.529 181.948C203.852 182.636 201.188 183.399 198.538 184.224C195.895 185.048 193.272 185.934 190.669 186.887C188.067 187.841 185.492 188.856 182.937 189.932C180.383 191.016 177.862 192.16 175.362 193.359C172.868 194.565 170.402 195.832 167.963 197.161C165.531 198.482 163.133 199.872 160.763 201.316C158.399 202.76 156.069 204.259 153.773 205.819C151.477 207.379 149.222 208.994 147.008 210.663C144.794 212.332 142.621 214.056 140.495 215.834C138.363 217.612 136.278 219.444 134.235 221.324C132.198 223.205 130.202 225.133 128.253 227.108C126.312 229.091 124.411 231.114 122.565 233.185C120.719 235.263 118.92 237.375 117.176 239.534C115.432 241.701 113.743 243.901 112.108 246.142C110.473 248.391 108.892 250.673 107.366 252.996C105.84 255.312 104.375 257.676 102.965 260.067C101.555 262.458 100.206 264.89 98.9118 267.35C97.6243 269.809 96.3912 272.302 95.2263 274.823C94.0545 277.344 92.9509 279.892 91.9018 282.467C90.8595 285.049 89.8785 287.644 88.9588 290.267C88.0459 292.897 87.1943 295.54 86.4041 298.204C85.6138 300.874 84.8917 303.558 84.2377 306.263C83.5769 308.96 82.991 311.679 82.4665 314.41C81.9419 317.142 81.4855 319.881 81.0971 322.633C80.702 325.392 80.3818 328.151 80.1298 330.924C79.8709 333.69 79.687 336.463 79.5643 339.242C79.4485 342.022 79.394 344.801 79.4145 347.587C79.4281 353.153 79.721 358.705 80.2796 364.244C80.8451 369.782 81.6762 375.28 82.7798 380.737C83.8835 386.194 85.2528 391.576 86.8946 396.896C88.5296 402.217 90.4166 407.442 92.5694 412.579C94.7221 417.708 97.1201 422.722 99.7634 427.614C102.407 432.505 105.282 437.26 108.395 441.866C111.508 446.471 114.839 450.913 118.389 455.191C121.938 459.469 125.692 463.556 129.643 467.46L135.917 461.029C134.051 459.183 132.232 457.282 130.461 455.341C128.689 453.399 126.966 451.417 125.29 449.393C123.614 447.363 121.986 445.299 120.412 443.194C118.838 441.089 117.319 438.943 115.848 436.763C114.376 434.583 112.959 432.369 111.604 430.114C110.241 427.866 108.933 425.584 107.686 423.267C106.433 420.951 105.241 418.608 104.11 416.23C102.972 413.859 101.896 411.461 100.881 409.029C99.8588 406.604 98.905 404.151 98.0058 401.679C97.1065 399.206 96.2686 396.712 95.492 394.192C94.7221 391.678 94.0068 389.144 93.3528 386.596C92.6988 384.048 92.113 381.479 91.5884 378.898C91.057 376.322 90.5938 373.727 90.1986 371.125C89.7967 368.522 89.4629 365.913 89.1904 363.29C88.9179 360.674 88.7067 358.051 88.5636 355.422C88.4206 352.792 88.3388 350.162 88.3252 347.526C88.3116 344.896 88.3593 342.26 88.4683 339.63C88.5841 337.001 88.7612 334.371 89.0065 331.748C89.2449 329.125 89.5515 326.516 89.9193 323.907C90.294 321.298 90.7232 318.702 91.2205 316.12C91.7178 313.532 92.2765 310.963 92.8964 308.402C93.5231 305.847 94.2044 303.306 94.9538 300.779C95.6963 298.251 96.507 295.751 97.3722 293.264C98.2442 290.778 99.1707 288.319 100.165 285.88C101.153 283.441 102.202 281.029 103.306 278.645C104.416 276.254 105.581 273.897 106.801 271.567C108.027 269.237 109.308 266.941 110.643 264.672C111.971 262.404 113.361 260.176 114.805 257.976C116.25 255.775 117.748 253.616 119.302 251.49C120.848 249.372 122.449 247.287 124.104 245.236C125.753 243.193 127.456 241.19 129.2 239.228C130.951 237.266 132.75 235.351 134.596 233.478C136.435 231.605 138.322 229.779 140.257 228.001C142.192 226.216 144.167 224.485 146.184 222.803C148.2 221.12 150.258 219.492 152.356 217.911C154.454 216.331 156.586 214.798 158.76 213.327C160.933 211.848 163.14 210.431 165.381 209.062C167.623 207.693 169.898 206.385 172.201 205.131C174.503 203.878 176.84 202.679 179.204 201.541C181.568 200.396 183.959 199.32 186.378 198.298C188.796 197.276 191.235 196.309 193.701 195.41C196.16 194.51 198.647 193.666 201.154 192.889C203.661 192.112 206.181 191.397 208.723 190.736C211.264 190.082 213.818 189.496 216.387 188.965C218.955 188.434 221.537 187.97 224.126 187.569C226.721 187.167 229.317 186.833 231.926 186.56C234.535 186.281 237.151 186.077 239.767 185.934C242.383 185.784 245.006 185.709 247.629 185.688C250.252 185.675 252.874 185.722 255.49 185.838C258.113 185.954 260.729 186.131 263.338 186.376C265.948 186.615 268.557 186.928 271.152 187.296C273.748 187.671 276.33 188.1 278.905 188.604C281.48 189.101 284.042 189.66 286.589 190.287C289.137 190.913 291.672 191.602 294.185 192.351C296.699 193.1 299.193 193.911 301.665 194.783C304.138 195.655 306.591 196.588 309.023 197.583C311.448 198.578 313.853 199.627 316.231 200.744C318.608 201.854 320.958 203.026 323.275 204.252C325.598 205.479 327.887 206.766 330.142 208.101C332.397 209.443 334.624 210.84 336.811 212.291C338.998 213.742 341.151 215.248 343.269 216.801C345.381 218.361 347.459 219.962 349.496 221.624C351.533 223.28 353.529 224.99 355.484 226.747C357.433 228.505 359.347 230.31 361.214 232.163L397.374 268.004L403.689 261.573L367.576 225.725C363.646 221.801 359.531 218.082 355.225 214.566C350.927 211.051 346.464 207.754 341.846 204.682C337.22 201.609 332.458 198.775 327.553 196.173C322.648 193.577 317.627 191.227 312.497 189.122C307.361 187.024 302.136 185.184 296.815 183.597C291.501 182.016 286.119 180.702 280.676 179.652C275.226 178.61 269.742 177.833 264.224 177.329C258.699 176.832 253.167 176.6 247.622 176.648V176.6ZM248.283 289.729C245.496 289.742 242.731 289.967 239.985 290.39C237.233 290.819 234.528 291.446 231.871 292.27C229.215 293.101 226.633 294.116 224.119 295.329C221.612 296.534 219.207 297.924 216.904 299.491C214.602 301.058 212.422 302.782 210.371 304.669C208.321 306.562 206.42 308.586 204.669 310.759C202.911 312.925 201.331 315.214 199.914 317.619C198.497 320.024 197.264 322.524 196.215 325.106C195.166 327.695 194.307 330.345 193.646 333.063C192.986 335.774 192.529 338.52 192.27 341.306C192.018 344.086 191.964 346.872 192.114 349.665C192.27 352.451 192.625 355.217 193.183 357.956C193.742 360.688 194.498 363.372 195.445 365.995C196.399 368.624 197.536 371.165 198.865 373.618C200.186 376.077 201.685 378.421 203.354 380.655C205.023 382.89 206.849 384.995 208.832 386.957L215.16 380.539C214.05 379.436 213.001 378.284 212.006 377.079C211.005 375.88 210.071 374.626 209.199 373.332C208.327 372.037 207.517 370.695 206.774 369.319C206.032 367.943 205.357 366.54 204.758 365.095C204.151 363.651 203.62 362.187 203.157 360.688C202.693 359.196 202.305 357.677 201.992 356.144C201.678 354.611 201.447 353.071 201.283 351.511C201.12 349.958 201.038 348.398 201.024 346.831C201.018 345.264 201.086 343.704 201.229 342.144C201.372 340.584 201.59 339.038 201.883 337.505C202.183 335.965 202.55 334.446 202.993 332.947C203.436 331.449 203.954 329.97 204.54 328.526C205.132 327.075 205.786 325.658 206.515 324.275C207.237 322.885 208.034 321.543 208.893 320.235C209.751 318.927 210.671 317.667 211.652 316.454C212.633 315.242 213.668 314.077 214.765 312.959C215.862 311.849 217.007 310.793 218.206 309.792C219.405 308.79 220.651 307.857 221.946 306.978C223.233 306.099 224.562 305.289 225.931 304.546C227.307 303.797 228.71 303.122 230.141 302.516C231.578 301.91 233.043 301.371 234.528 300.908C236.02 300.445 237.526 300.057 239.052 299.743C240.585 299.43 242.117 299.191 243.671 299.028C245.217 298.864 246.777 298.783 248.33 298.769C249.89 298.762 251.444 298.83 252.997 298.973C254.55 299.116 256.09 299.341 257.623 299.634C259.149 299.934 260.661 300.302 262.16 300.751C263.652 301.194 265.116 301.712 266.561 302.305C268.005 302.891 269.415 303.551 270.798 304.28C272.174 305.009 273.516 305.806 274.817 306.671C276.119 307.53 277.372 308.456 278.585 309.444C279.791 310.425 280.949 311.467 282.059 312.571L318.233 348.568L324.542 342.131L288.333 306.188C285.697 303.558 282.836 301.215 279.743 299.157C276.643 297.1 273.38 295.363 269.94 293.959C266.506 292.549 262.964 291.493 259.319 290.792C255.674 290.083 251.996 289.749 248.283 289.776V289.729ZM247.751 199.232C244.148 199.252 240.551 199.409 236.96 199.695C233.37 199.981 229.794 200.396 226.231 200.948C222.668 201.5 219.132 202.181 215.617 202.992C212.108 203.803 208.634 204.743 205.187 205.812C201.747 206.882 198.347 208.081 194.995 209.403C191.637 210.724 188.34 212.162 185.09 213.729C181.84 215.295 178.652 216.978 175.525 218.777C172.398 220.582 169.346 222.496 166.362 224.52C163.379 226.55 160.47 228.682 157.642 230.93C154.815 233.171 152.07 235.515 149.413 237.961C146.756 240.406 144.195 242.941 141.728 245.577C139.255 248.213 136.885 250.938 134.616 253.745C132.348 256.559 130.181 259.447 128.124 262.417C126.066 265.388 124.118 268.433 122.286 271.546C120.453 274.66 118.736 277.841 117.135 281.077C115.528 284.32 114.049 287.617 112.694 290.969C111.331 294.32 110.098 297.72 108.988 301.16C107.877 304.6 106.896 308.082 106.038 311.597C105.186 315.112 104.457 318.655 103.865 322.224C103.272 325.794 102.809 329.378 102.475 332.981C102.141 336.585 101.943 340.196 101.875 343.813C101.807 347.431 101.875 351.048 102.073 354.659C102.27 358.276 102.604 361.873 103.067 365.463C103.531 369.054 104.123 372.616 104.846 376.166C105.568 379.708 106.426 383.223 107.407 386.705C108.388 390.186 109.498 393.626 110.732 397.026C111.965 400.425 113.32 403.777 114.805 407.074C116.284 410.371 117.885 413.614 119.601 416.796C121.318 419.977 123.151 423.09 125.099 426.135C127.047 429.181 129.098 432.144 131.264 435.039C133.431 437.935 135.699 440.741 138.07 443.466C140.441 446.191 142.907 448.828 145.468 451.369L151.804 444.938C150.224 443.344 148.684 441.709 147.185 440.04C145.68 438.364 144.222 436.661 142.805 434.917C141.388 433.173 140.012 431.395 138.683 429.583C137.355 427.77 136.067 425.931 134.827 424.058C133.581 422.184 132.388 420.284 131.237 418.349C130.093 416.414 128.989 414.459 127.94 412.47C126.884 410.487 125.876 408.471 124.922 406.44C123.968 404.404 123.062 402.346 122.204 400.262C121.352 398.184 120.542 396.085 119.792 393.967C119.036 391.848 118.334 389.709 117.687 387.556C117.033 385.403 116.44 383.237 115.895 381.05C115.35 378.87 114.86 376.67 114.424 374.469C113.981 372.262 113.6 370.041 113.273 367.814C112.939 365.593 112.666 363.358 112.441 361.117C112.223 358.882 112.053 356.634 111.944 354.386C111.828 352.138 111.774 349.89 111.767 347.642C111.767 345.394 111.815 343.139 111.924 340.897C112.033 338.649 112.189 336.401 112.407 334.16C112.625 331.925 112.891 329.691 113.218 327.463C113.538 325.236 113.92 323.021 114.349 320.807C114.778 318.6 115.269 316.407 115.807 314.22C116.345 312.04 116.938 309.867 117.578 307.714C118.225 305.554 118.92 303.415 119.67 301.296C120.412 299.178 121.216 297.073 122.068 294.988C122.912 292.91 123.812 290.846 124.765 288.809C125.712 286.772 126.714 284.762 127.763 282.773C128.812 280.784 129.909 278.822 131.053 276.887C132.198 274.952 133.383 273.045 134.623 271.165C135.856 269.291 137.137 267.445 138.465 265.633C139.787 263.814 141.156 262.036 142.573 260.285C143.983 258.541 145.441 256.831 146.933 255.155C148.432 253.479 149.965 251.838 151.538 250.244C153.119 248.643 154.727 247.076 156.382 245.557C158.031 244.037 159.72 242.559 161.444 241.115C163.167 239.677 164.925 238.281 166.717 236.932C168.508 235.576 170.327 234.268 172.18 233.008C174.04 231.748 175.92 230.528 177.835 229.356C179.749 228.185 181.691 227.061 183.659 225.991C185.628 224.915 187.624 223.886 189.641 222.905C191.657 221.931 193.701 221.004 195.765 220.125C197.823 219.247 199.907 218.422 202.012 217.646C204.117 216.869 206.236 216.147 208.375 215.473C210.514 214.805 212.667 214.185 214.84 213.62C217.007 213.054 219.187 212.536 221.38 212.08C223.574 211.623 225.781 211.215 227.995 210.867C230.209 210.513 232.43 210.22 234.658 209.975C236.885 209.73 239.113 209.546 241.354 209.409C243.589 209.28 245.83 209.205 248.072 209.178C250.313 209.157 252.554 209.185 254.789 209.273C257.03 209.362 259.264 209.505 261.499 209.702C263.733 209.893 265.954 210.145 268.175 210.452C270.396 210.758 272.61 211.119 274.811 211.535C277.018 211.944 279.205 212.414 281.385 212.938C283.565 213.456 285.731 214.028 287.884 214.662C290.037 215.289 292.169 215.963 294.294 216.699C296.413 217.428 298.511 218.211 300.589 219.049C302.674 219.887 304.731 220.773 306.768 221.706C308.805 222.646 310.821 223.627 312.811 224.663C314.8 225.698 316.762 226.781 318.704 227.912C320.638 229.043 322.546 230.222 324.426 231.448C326.306 232.674 328.159 233.941 329.978 235.256C331.797 236.571 333.582 237.933 335.333 239.337C337.084 240.74 338.8 242.184 340.483 243.669C342.166 245.155 343.808 246.687 345.415 248.254L381.542 284.122L387.864 277.677L351.737 241.823C348.331 238.417 344.761 235.195 341.035 232.143C337.308 229.098 333.439 226.243 329.426 223.579C325.421 220.916 321.292 218.456 317.041 216.201C312.79 213.953 308.437 211.916 303.989 210.091C299.54 208.272 295.01 206.678 290.398 205.301C285.792 203.932 281.126 202.794 276.405 201.888C271.684 200.982 266.929 200.308 262.146 199.872C257.357 199.436 252.561 199.238 247.751 199.279V199.232ZM112.223 211.215C110.016 213.456 107.863 215.745 105.772 218.095C103.674 220.446 101.644 222.837 99.6612 225.289C97.6856 227.735 95.7713 230.228 93.9183 232.769C92.0585 235.317 90.2668 237.899 88.5432 240.529C86.8128 243.165 85.1506 245.836 83.5496 248.547C81.9487 251.259 80.4227 254.011 78.958 256.797C77.4933 259.583 76.0968 262.411 74.7751 265.265C73.4467 268.12 72.1932 271.008 71.0078 273.931C69.8225 276.846 68.712 279.796 67.6765 282.766C66.6342 285.743 65.6668 288.741 64.7744 291.759C63.882 294.784 63.0576 297.822 62.3151 300.881C61.5725 303.946 60.8981 307.026 60.3054 310.119C59.7127 313.211 59.195 316.318 58.7521 319.438C58.3093 322.558 57.9415 325.692 57.6553 328.826C57.3624 331.966 57.1512 335.107 57.015 338.261C56.8787 341.408 56.8174 344.556 56.8378 347.71C56.8583 350.864 56.9536 354.012 57.124 357.159C57.2943 360.306 57.5463 363.447 57.8733 366.581C58.2003 369.714 58.6023 372.841 59.0791 375.955C59.556 379.068 60.1146 382.168 60.7414 385.26C61.375 388.346 62.0766 391.419 62.8601 394.471C63.6367 397.523 64.4951 400.554 65.4216 403.566C66.3481 406.577 67.3495 409.561 68.4259 412.524C69.5023 415.481 70.6468 418.417 71.8662 421.319C73.0856 424.228 74.3732 427.096 75.7289 429.937C77.0914 432.784 78.5152 435.584 80.014 438.357C81.5059 441.13 83.0728 443.862 84.701 446.552C86.3291 449.25 88.0255 451.9 89.7831 454.509C91.5407 457.119 93.3665 459.687 95.2467 462.208C97.1338 464.728 99.0753 467.201 101.085 469.626C103.088 472.052 105.152 474.422 107.271 476.745C109.396 479.069 111.569 481.337 113.804 483.551L120.126 477.12C117.994 475.008 115.923 472.849 113.899 470.635C111.876 468.421 109.907 466.159 108 463.849C106.085 461.54 104.232 459.183 102.441 456.778C100.642 454.373 98.905 451.934 97.2291 449.441C95.5533 446.954 93.9387 444.427 92.3855 441.859C90.8322 439.29 89.3471 436.688 87.9165 434.052C86.4926 431.408 85.1301 428.731 83.8358 426.026C82.5414 423.315 81.3151 420.583 80.157 417.811C78.9921 415.045 77.9021 412.245 76.8802 409.424C75.8515 406.604 74.8978 403.756 74.0121 400.888C73.1265 398.02 72.3158 395.132 71.5665 392.223C70.8239 389.314 70.1563 386.384 69.55 383.441C68.9505 380.498 68.4259 377.542 67.9695 374.578C67.513 371.608 67.1247 368.631 66.8181 365.64C66.5048 362.657 66.2663 359.659 66.1028 356.662C65.9393 353.664 65.8508 350.66 65.8303 347.655C65.8167 344.651 65.8712 341.654 66.0006 338.649C66.1301 335.652 66.3345 332.654 66.607 329.664C66.8863 326.673 67.2337 323.689 67.6561 320.719C68.0785 317.742 68.569 314.778 69.1344 311.829C69.7066 308.879 70.3402 305.949 71.0487 303.027C71.764 300.111 72.5406 297.216 73.3922 294.334C74.2438 291.452 75.1703 288.598 76.1581 285.764C77.1527 282.93 78.2086 280.123 79.3395 277.344C80.4704 274.557 81.6626 271.805 82.9297 269.087C84.19 266.362 85.5185 263.671 86.915 261.014C88.3048 258.357 89.7695 255.734 91.2886 253.152C92.8146 250.564 94.3951 248.023 96.0438 245.516C97.6924 243.009 99.4023 240.543 101.167 238.117C102.938 235.692 104.764 233.314 106.644 230.985C108.531 228.655 110.473 226.366 112.469 224.131C114.465 221.89 116.515 219.703 118.614 217.571C120.719 215.432 122.871 213.347 125.079 211.317C127.279 209.287 129.534 207.318 131.837 205.397C134.139 203.476 136.483 201.616 138.874 199.811C141.265 198.012 143.704 196.268 146.177 194.585C148.657 192.896 151.171 191.275 153.732 189.721C156.287 188.161 158.882 186.662 161.512 185.232C164.142 183.801 166.805 182.432 169.496 181.138C172.194 179.836 174.926 178.603 177.678 177.438C180.437 176.273 183.223 175.177 186.03 174.148C188.844 173.119 191.678 172.159 194.532 171.273C197.393 170.381 200.268 169.563 203.164 168.814C206.066 168.071 208.975 167.397 211.904 166.79C214.84 166.191 217.783 165.66 220.74 165.203C223.69 164.74 226.66 164.358 229.637 164.045C232.607 163.732 235.591 163.493 238.575 163.33C241.566 163.166 244.549 163.078 247.547 163.057C250.538 163.044 253.528 163.098 256.512 163.227C259.503 163.357 262.487 163.561 265.464 163.841C268.441 164.113 271.411 164.467 274.375 164.89C277.338 165.312 280.288 165.809 283.224 166.375C286.16 166.947 289.083 167.587 291.985 168.303C294.894 169.011 297.782 169.795 300.65 170.653C303.512 171.511 306.359 172.431 309.18 173.433C312.007 174.427 314.8 175.49 317.573 176.621C320.339 177.759 323.084 178.958 325.795 180.225C328.507 181.499 331.184 182.834 333.827 184.23C336.477 185.634 339.087 187.098 341.662 188.624C344.237 190.157 346.771 191.745 349.271 193.4C351.765 195.055 354.217 196.772 356.636 198.55C359.047 200.322 361.411 202.154 363.734 204.048C366.057 205.942 368.339 207.89 370.567 209.893C372.795 211.896 374.968 213.96 377.1 216.072L413.186 251.892L419.508 245.461L383.415 209.634C381.181 207.42 378.899 205.261 376.562 203.162C374.225 201.057 371.834 199.014 369.395 197.031C366.963 195.042 364.477 193.121 361.942 191.254C359.415 189.394 356.84 187.596 354.217 185.859C351.601 184.121 348.937 182.452 346.24 180.851C343.535 179.244 340.796 177.704 338.017 176.239C335.244 174.768 332.431 173.371 329.59 172.036C326.742 170.708 323.867 169.447 320.958 168.255C318.056 167.07 315.12 165.952 312.157 164.91C309.2 163.861 306.216 162.894 303.205 161.994C300.194 161.095 297.169 160.271 294.117 159.528C291.072 158.779 288.006 158.104 284.927 157.512C281.841 156.912 278.748 156.388 275.642 155.945C272.535 155.502 269.415 155.134 266.295 154.841C263.168 154.555 260.034 154.337 256.901 154.201C253.767 154.065 250.633 154.01 247.492 154.024C244.352 154.044 241.218 154.14 238.084 154.31C234.951 154.487 231.824 154.732 228.704 155.059C225.577 155.386 222.47 155.795 219.364 156.272C216.264 156.756 213.178 157.307 210.105 157.941C207.026 158.575 203.967 159.283 200.929 160.066C197.891 160.85 194.873 161.708 191.875 162.642C188.878 163.575 185.901 164.576 182.958 165.66C180.008 166.736 177.085 167.887 174.19 169.107C171.301 170.333 168.44 171.627 165.613 172.99C162.779 174.352 159.986 175.783 157.227 177.288C154.468 178.787 151.75 180.361 149.065 181.996C146.381 183.631 143.745 185.327 141.143 187.098C138.54 188.863 135.985 190.689 133.478 192.583C130.971 194.476 128.505 196.425 126.094 198.441C123.675 200.451 121.311 202.529 119.002 204.654C116.686 206.787 114.431 208.973 112.223 211.215Z" fill="white"/>
</mask>
<g mask="url(#mask3_241_354)">
<path d="M236.055 -28.0813L-107.254 320.698L240.272 665.642L583.581 316.87L236.055 -28.0813Z" fill="url(#paint0_linear_241_354)"/>
</g>
</g>
</g>
</g>
<mask id="mask4_241_354" style="mask-type:luminance" maskUnits="userSpaceOnUse" x="409" y="336" width="204" height="212">
<path d="M409.84 336.592H612.144V547.616H409.84V336.592Z" fill="white"/>
</mask>
<g mask="url(#mask4_241_354)">
<mask id="mask5_241_354" style="mask-type:luminance" maskUnits="userSpaceOnUse" x="410" y="336" width="201" height="213">
<path d="M411.829 548.249L410.609 338.07L609.371 336.912L610.59 547.091L411.829 548.249Z" fill="white"/>
</mask>
<g mask="url(#mask5_241_354)">
<mask id="mask6_241_354" style="mask-type:luminance" maskUnits="userSpaceOnUse" x="410" y="336" width="201" height="213">
<path d="M411.829 548.249L410.609 338.07L609.371 336.912L610.59 547.091L411.829 548.249Z" fill="white"/>
</mask>
<g mask="url(#mask6_241_354)">
<mask id="mask7_241_354" style="mask-type:luminance" maskUnits="userSpaceOnUse" x="411" y="337" width="200" height="211">
<path d="M526.837 478.428L449.344 401.992L442.995 408.423L520.487 484.852L526.837 478.428ZM506.583 344.058L560.967 397.707L567.33 391.283L512.932 337.634L506.583 344.058ZM490.737 360.15L582.604 450.769L588.967 444.345L497.086 353.719L490.737 360.15ZM417.557 434.181L411.201 440.605L515.119 543.106L521.482 536.73L417.557 434.181ZM427.054 424.521L551.525 547.275L557.874 540.851L433.451 418.083L427.054 424.521ZM474.748 376.234L594.308 494.124L600.657 487.714L481.145 369.81L474.748 376.234ZM458.895 392.332L604.124 535.578L610.48 529.168L465.252 385.908L458.895 392.332Z" fill="white"/>
</mask>
<g mask="url(#mask7_241_354)">
<path d="M509.69 238.206L306.174 443.671L512 646.704L715.517 441.239L509.69 238.206Z" fill="url(#paint1_linear_241_354)"/>
</g>
</g>
</g>
</g>
<mask id="mask8_241_354" style="mask-type:luminance" maskUnits="userSpaceOnUse" x="111" y="88" width="460" height="451">
<path d="M111.615 88.9441H570.287V538.896H111.615V88.9441Z" fill="white"/>
</mask>
<g mask="url(#mask8_241_354)">
<mask id="mask9_241_354" style="mask-type:luminance" maskUnits="userSpaceOnUse" x="110" y="88" width="461" height="452">
<path d="M113.448 539.169L110.846 91.3898L567.76 88.7329L570.362 536.512L113.448 539.169Z" fill="white"/>
</mask>
<g mask="url(#mask9_241_354)">
<mask id="mask10_241_354" style="mask-type:luminance" maskUnits="userSpaceOnUse" x="110" y="88" width="461" height="452">
<path d="M113.448 539.169L110.846 91.3898L567.76 88.7329L570.362 536.512L113.448 539.169Z" fill="white"/>
</mask>
<g mask="url(#mask10_241_354)">
<mask id="mask11_241_354" style="mask-type:luminance" maskUnits="userSpaceOnUse" x="113" y="88" width="456" height="451">
<path d="M198.537 395.956L192.215 402.374C194.061 404.193 195.982 405.923 197.999 407.558C200.009 409.193 202.093 410.719 204.253 412.15C206.412 413.573 208.64 414.895 210.929 416.101C213.218 417.313 215.562 418.403 217.96 419.384C220.351 420.359 222.79 421.217 225.269 421.96C227.756 422.695 230.263 423.308 232.804 423.799C235.345 424.289 237.9 424.657 240.475 424.896C243.057 425.134 245.632 425.25 248.221 425.23C250.809 425.216 253.391 425.073 255.96 424.807C258.535 424.535 261.09 424.14 263.624 423.622C266.158 423.104 268.658 422.457 271.131 421.694C273.604 420.924 276.029 420.038 278.414 419.03C280.805 418.029 283.135 416.905 285.41 415.672C287.686 414.432 289.893 413.09 292.039 411.639C294.178 410.188 296.249 408.627 298.238 406.972C300.234 405.317 302.142 403.566 303.961 401.726L568.02 133.641L567.945 120.881L297.564 395.377C295.949 397.012 294.26 398.565 292.495 400.03C290.731 401.502 288.898 402.878 286.997 404.165C285.097 405.453 283.142 406.645 281.125 407.742C279.109 408.832 277.044 409.826 274.926 410.719C272.814 411.611 270.661 412.395 268.474 413.076C266.281 413.757 264.067 414.33 261.818 414.786C259.57 415.249 257.309 415.597 255.026 415.835C252.751 416.074 250.462 416.203 248.173 416.217C245.877 416.23 243.588 416.128 241.306 415.917C239.024 415.706 236.755 415.379 234.507 414.949C232.252 414.513 230.031 413.968 227.831 413.314C225.63 412.66 223.471 411.897 221.352 411.032C219.227 410.167 217.149 409.193 215.119 408.123C213.089 407.054 211.12 405.882 209.206 404.615C207.291 403.355 205.445 401.999 203.66 400.548C201.875 399.104 200.172 397.571 198.537 395.956ZM281.507 379.504C280.417 380.614 279.265 381.664 278.073 382.658C276.874 383.66 275.627 384.593 274.34 385.465C273.052 386.337 271.724 387.148 270.355 387.89C268.985 388.633 267.582 389.307 266.151 389.914C264.714 390.52 263.256 391.051 261.771 391.514C260.286 391.971 258.78 392.359 257.254 392.673C255.728 392.986 254.195 393.224 252.649 393.388C251.096 393.545 249.549 393.633 247.989 393.64C246.436 393.647 244.883 393.585 243.336 393.436C241.783 393.293 240.243 393.075 238.717 392.782C237.191 392.482 235.679 392.114 234.187 391.671C232.702 391.228 231.23 390.711 229.793 390.125C228.349 389.532 226.938 388.878 225.562 388.149C224.186 387.427 222.851 386.63 221.55 385.772C220.249 384.913 218.995 383.993 217.789 383.012C216.577 382.031 215.419 380.989 214.308 379.892L207.986 386.31C209.308 387.618 210.684 388.851 212.121 390.023C213.559 391.187 215.051 392.284 216.597 393.299C218.144 394.321 219.738 395.268 221.373 396.133C223.008 396.992 224.684 397.775 226.4 398.477C228.11 399.172 229.854 399.792 231.632 400.316C233.404 400.841 235.202 401.284 237.014 401.631C238.833 401.985 240.666 402.244 242.505 402.414C244.344 402.585 246.191 402.667 248.044 402.66C249.897 402.646 251.736 402.544 253.582 402.353C255.422 402.162 257.247 401.876 259.059 401.508C260.872 401.134 262.663 400.67 264.428 400.125C266.199 399.58 267.929 398.947 269.639 398.225C271.342 397.503 273.011 396.706 274.64 395.82C276.268 394.934 277.848 393.974 279.381 392.938C280.914 391.896 282.392 390.786 283.816 389.6C285.24 388.422 286.602 387.168 287.904 385.846L567.836 101.683L567.761 88.9441L281.507 379.504ZM248.296 438.834C242.219 438.882 236.197 438.337 230.229 437.185C224.254 436.041 218.457 434.317 212.83 432.015C207.203 429.712 201.855 426.878 196.786 423.513C191.718 420.147 187.031 416.312 182.719 412.013L176.397 418.431C178.76 420.781 181.233 423.002 183.815 425.107C186.404 427.205 189.081 429.174 191.854 431.013C194.634 432.853 197.488 434.549 200.431 436.102C203.374 437.656 206.385 439.066 209.464 440.326C212.544 441.58 215.677 442.69 218.866 443.637C222.054 444.584 225.276 445.374 228.539 446.008C231.809 446.641 235.093 447.111 238.404 447.418C241.715 447.724 245.032 447.874 248.357 447.854C251.681 447.833 254.999 447.649 258.31 447.302C261.614 446.955 264.898 446.45 268.154 445.776C271.41 445.108 274.626 444.284 277.807 443.296C280.982 442.308 284.102 441.164 287.168 439.87C290.233 438.575 293.224 437.138 296.147 435.544C299.069 433.956 301.91 432.226 304.662 430.359C307.421 428.486 310.071 426.49 312.633 424.358C315.188 422.225 317.64 419.97 319.977 417.6L568.204 165.578L568.136 152.811L313.566 411.257C309.308 415.603 304.662 419.493 299.635 422.913C294.6 426.34 289.286 429.235 283.687 431.606C278.08 433.97 272.303 435.762 266.349 436.981C260.388 438.194 254.372 438.814 248.296 438.834ZM248.82 529.161C242.839 529.209 236.871 528.964 230.917 528.425C224.956 527.88 219.043 527.049 213.17 525.918C207.298 524.787 201.494 523.37 195.758 521.667C190.028 519.964 184.388 517.975 178.849 515.713C173.31 513.445 167.901 510.917 162.608 508.11C157.322 505.31 152.185 502.252 147.198 498.941C142.211 495.63 137.395 492.074 132.762 488.286C128.123 484.498 123.681 480.486 119.444 476.255L113.115 482.666C115.35 484.873 117.632 487.033 119.962 489.131C122.298 491.229 124.683 493.266 127.115 495.248C129.554 497.231 132.034 499.152 134.561 501.012C137.088 502.872 139.664 504.67 142.28 506.4C144.896 508.131 147.552 509.8 150.25 511.401C152.948 513.002 155.687 514.535 158.459 516.006C161.232 517.471 164.039 518.867 166.879 520.196C169.72 521.524 172.595 522.785 175.497 523.97C178.399 525.155 181.329 526.273 184.285 527.315C187.242 528.357 190.226 529.325 193.23 530.224C196.235 531.116 199.259 531.941 202.304 532.683C205.35 533.432 208.415 534.107 211.488 534.7C214.567 535.299 217.66 535.817 220.76 536.26C223.866 536.702 226.979 537.07 230.099 537.356C233.22 537.649 236.347 537.861 239.48 537.997C242.607 538.133 245.741 538.194 248.882 538.174C252.015 538.16 255.142 538.065 258.276 537.888C261.403 537.718 264.53 537.465 267.65 537.138C270.763 536.818 273.87 536.41 276.969 535.933C280.069 535.456 283.155 534.897 286.221 534.264C289.293 533.637 292.345 532.928 295.384 532.145C298.422 531.361 301.433 530.51 304.431 529.577C307.421 528.643 310.392 527.642 313.341 526.565C316.284 525.489 319.2 524.338 322.089 523.118C324.977 521.899 327.838 520.605 330.666 519.249C333.486 517.886 336.279 516.456 339.038 514.957C341.79 513.458 344.509 511.891 347.186 510.256C349.87 508.621 352.507 506.925 355.102 505.161C357.698 503.403 360.245 501.577 362.753 499.683C365.259 497.796 367.719 495.848 370.13 493.838C372.542 491.829 374.906 489.764 377.215 487.632C379.525 485.507 381.78 483.327 383.987 481.092L568.946 293.312L568.878 280.559L377.59 474.756C373.394 479.035 369 483.095 364.408 486.944C359.816 490.786 355.041 494.39 350.095 497.762C345.149 501.134 340.046 504.248 334.787 507.109C329.528 509.977 324.146 512.573 318.635 514.902C313.123 517.232 307.51 519.283 301.794 521.054C296.079 522.825 290.295 524.311 284.429 525.503C278.57 526.702 272.664 527.608 266.717 528.214C260.769 528.827 254.802 529.141 248.82 529.161ZM248.691 506.537C243.445 506.584 238.213 506.373 232.995 505.896C227.776 505.426 222.592 504.697 217.442 503.71C212.292 502.729 207.203 501.489 202.182 499.997C197.154 498.505 192.215 496.768 187.358 494.785C182.501 492.803 177.752 490.589 173.12 488.136C168.48 485.684 163.977 483.006 159.604 480.104C155.23 477.209 151.006 474.096 146.939 470.778C142.872 467.46 138.982 463.945 135.263 460.246L128.941 466.65C130.903 468.605 132.919 470.505 134.977 472.358C137.041 474.211 139.146 476.01 141.292 477.761C143.438 479.505 145.631 481.201 147.859 482.843C150.093 484.485 152.362 486.072 154.671 487.598C156.981 489.131 159.324 490.602 161.709 492.012C164.086 493.429 166.505 494.778 168.95 496.073C171.396 497.367 173.876 498.607 176.383 499.779C178.89 500.951 181.424 502.061 183.986 503.103C186.547 504.152 189.136 505.14 191.745 506.06C194.354 506.98 196.984 507.831 199.634 508.621C202.291 509.418 204.961 510.141 207.645 510.801C210.336 511.455 213.034 512.048 215.752 512.579C218.471 513.104 221.196 513.56 223.934 513.956C226.673 514.344 229.418 514.671 232.177 514.923C234.93 515.182 237.689 515.366 240.454 515.488C243.214 515.611 245.979 515.659 248.745 515.645C251.511 515.631 254.277 515.543 257.043 515.393C259.802 515.243 262.561 515.018 265.313 514.732C268.066 514.446 270.804 514.085 273.536 513.663C276.275 513.24 278.993 512.75 281.704 512.191C284.416 511.632 287.113 511.013 289.791 510.324C292.468 509.63 295.132 508.873 297.775 508.056C300.418 507.232 303.034 506.346 305.636 505.399C308.232 504.445 310.807 503.43 313.362 502.354C315.91 501.277 318.43 500.14 320.924 498.934C323.417 497.735 325.883 496.475 328.315 495.153C330.747 493.825 333.145 492.442 335.509 491.004C337.873 489.56 340.196 488.061 342.492 486.508C344.781 484.955 347.036 483.34 349.243 481.671C351.457 480.009 353.631 478.285 355.756 476.514C357.882 474.743 359.966 472.917 362.003 471.037C364.047 469.163 366.036 467.235 367.978 465.26L568.763 261.423L568.688 248.622L361.581 458.931C357.909 462.678 354.053 466.234 350.027 469.606C346.001 472.972 341.811 476.133 337.471 479.082C333.132 482.039 328.663 484.764 324.051 487.271C319.445 489.785 314.724 492.053 309.887 494.097C305.057 496.134 300.139 497.933 295.125 499.479C290.118 501.032 285.042 502.333 279.906 503.376C274.769 504.425 269.592 505.215 264.373 505.753C259.162 506.285 253.93 506.557 248.691 506.571V506.537ZM248.555 483.912C244.051 483.946 239.555 483.763 235.066 483.354C230.576 482.945 226.121 482.311 221.693 481.46C217.265 480.602 212.891 479.532 208.572 478.244C204.253 476.964 200.009 475.465 195.833 473.755C191.657 472.045 187.583 470.131 183.597 468.019C179.612 465.907 175.743 463.598 171.982 461.097C168.228 458.604 164.604 455.927 161.109 453.065C157.614 450.204 154.276 447.179 151.081 443.991L144.759 450.545C146.462 452.234 148.206 453.883 149.991 455.491C151.783 457.092 153.602 458.658 155.469 460.171C157.328 461.69 159.229 463.155 161.164 464.579C163.099 466.002 165.067 467.378 167.063 468.7C169.066 470.029 171.103 471.302 173.167 472.529C175.232 473.755 177.323 474.927 179.442 476.051C181.567 477.175 183.713 478.238 185.886 479.259C188.06 480.275 190.253 481.235 192.474 482.141C194.695 483.054 196.943 483.906 199.205 484.703C201.467 485.5 203.749 486.242 206.045 486.93C208.34 487.612 210.657 488.238 212.986 488.811C215.316 489.383 217.66 489.894 220.01 490.35C222.367 490.807 224.731 491.209 227.109 491.542C229.48 491.883 231.864 492.162 234.248 492.387C236.639 492.612 239.031 492.775 241.422 492.878C243.82 492.98 246.218 493.028 248.616 493.014C251.014 493 253.412 492.925 255.803 492.796C258.201 492.66 260.592 492.469 262.977 492.224C265.361 491.972 267.739 491.665 270.109 491.297C272.48 490.929 274.837 490.507 277.187 490.023C279.538 489.54 281.874 488.995 284.191 488.402C286.514 487.802 288.823 487.148 291.112 486.433C293.408 485.725 295.677 484.955 297.932 484.13C300.18 483.306 302.414 482.427 304.621 481.494C306.835 480.561 309.022 479.573 311.182 478.531C313.341 477.488 315.481 476.391 317.586 475.247C319.697 474.102 321.775 472.903 323.826 471.65C325.876 470.403 327.893 469.102 329.875 467.753C331.865 466.404 333.813 465.008 335.734 463.563C337.648 462.119 339.535 460.627 341.375 459.094C343.221 457.555 345.026 455.974 346.798 454.346C348.562 452.718 350.292 451.049 351.975 449.339L568.579 229.452L568.504 216.685L345.544 443.044C342.383 446.26 339.072 449.319 335.611 452.214C332.151 455.109 328.561 457.821 324.834 460.362C321.101 462.896 317.259 465.246 313.301 467.399C309.342 469.552 305.289 471.507 301.133 473.264C296.985 475.015 292.754 476.555 288.455 477.89C284.15 479.225 279.79 480.343 275.375 481.242C270.961 482.148 266.519 482.822 262.036 483.286C257.554 483.742 253.064 483.981 248.555 483.994V483.912ZM166.9 428.077L160.578 434.495C162.022 435.925 163.5 437.315 165.013 438.671C166.525 440.026 168.072 441.348 169.645 442.629C171.226 443.903 172.834 445.149 174.469 446.348C176.11 447.547 177.773 448.712 179.469 449.829C181.158 450.947 182.882 452.023 184.626 453.059C186.377 454.094 188.148 455.082 189.94 456.029C191.738 456.983 193.557 457.882 195.397 458.74C197.236 459.599 199.096 460.409 200.969 461.179C202.849 461.942 204.75 462.664 206.664 463.339C208.579 464.013 210.507 464.64 212.448 465.219C214.397 465.791 216.352 466.323 218.321 466.806C220.296 467.29 222.272 467.726 224.268 468.107C226.257 468.489 228.26 468.83 230.27 469.116C232.273 469.402 234.289 469.64 236.306 469.824C238.329 470.015 240.352 470.151 242.376 470.24C244.406 470.328 246.429 470.362 248.459 470.356C250.489 470.342 252.513 470.281 254.543 470.165C256.566 470.056 258.589 469.892 260.606 469.681C262.622 469.47 264.632 469.211 266.642 468.904C268.645 468.591 270.641 468.237 272.63 467.828C274.612 467.419 276.588 466.963 278.557 466.459C280.519 465.955 282.474 465.396 284.409 464.797C286.35 464.197 288.271 463.55 290.172 462.855C292.08 462.16 293.967 461.418 295.84 460.627C297.707 459.837 299.56 459.006 301.385 458.127C303.218 457.248 305.023 456.322 306.808 455.354C308.593 454.387 310.351 453.372 312.088 452.316C313.825 451.267 315.528 450.17 317.211 449.026C318.894 447.888 320.542 446.709 322.17 445.49C323.792 444.27 325.386 443.01 326.946 441.709C328.506 440.415 330.039 439.079 331.538 437.703C333.03 436.327 334.494 434.924 335.925 433.473L568.32 197.542L568.245 184.776L329.569 427.13C328.247 428.472 326.891 429.78 325.502 431.054C324.119 432.335 322.695 433.575 321.251 434.781C319.8 435.986 318.321 437.151 316.816 438.289C315.31 439.42 313.777 440.517 312.217 441.573C310.657 442.629 309.077 443.651 307.469 444.632C305.854 445.606 304.226 446.546 302.571 447.445C300.915 448.344 299.24 449.203 297.543 450.02C295.847 450.838 294.13 451.614 292.393 452.343C290.663 453.079 288.905 453.767 287.141 454.414C285.369 455.061 283.584 455.661 281.786 456.22C279.987 456.778 278.182 457.289 276.356 457.759C274.531 458.229 272.698 458.652 270.859 459.033C269.012 459.415 267.159 459.748 265.3 460.035C263.44 460.321 261.573 460.566 259.7 460.757C257.826 460.954 255.953 461.104 254.073 461.206C252.192 461.309 250.312 461.37 248.432 461.377C246.552 461.39 244.671 461.356 242.791 461.274C240.911 461.193 239.031 461.063 237.157 460.886C235.284 460.716 233.41 460.498 231.551 460.232C229.684 459.96 227.831 459.653 225.985 459.292C224.132 458.938 222.299 458.536 220.467 458.086C218.641 457.637 216.822 457.146 215.017 456.608C213.211 456.07 211.426 455.491 209.648 454.864C207.87 454.237 206.113 453.57 204.369 452.854C202.625 452.146 200.901 451.39 199.191 450.592C197.488 449.795 195.799 448.957 194.136 448.079C192.467 447.2 190.825 446.28 189.204 445.32C187.589 444.352 185.989 443.358 184.422 442.315C182.848 441.273 181.302 440.197 179.782 439.086C178.263 437.969 176.771 436.818 175.313 435.625C173.849 434.44 172.418 433.214 171.015 431.953C169.611 430.693 168.242 429.399 166.9 428.077Z" fill="white"/>
</mask>
<g mask="url(#mask11_241_354)">
<path d="M113.135 540.844L571.555 538.181L568.933 86.2939L110.506 88.9576L113.135 540.844Z" fill="url(#paint2_linear_241_354)"/>
</g>
</g>
</g>
</g>
<defs>
<linearGradient id="paint0_linear_241_354" x1="253.125" y1="-27.2789" x2="220.582" y2="664.718" gradientUnits="userSpaceOnUse">
<stop stop-color="#1FC1E4"/>
<stop offset="0.25" stop-color="#1FC1E4"/>
<stop offset="0.375" stop-color="#1FC1E4"/>
<stop offset="0.4375" stop-color="#1FC1E4"/>
<stop offset="0.445312" stop-color="#1FC1E4"/>
<stop offset="0.449219" stop-color="#20C0E4"/>
<stop offset="0.453125" stop-color="#21BFE4"/>
<stop offset="0.457031" stop-color="#24BCE5"/>
<stop offset="0.460938" stop-color="#27B9E6"/>
<stop offset="0.464844" stop-color="#2AB6E7"/>
<stop offset="0.46875" stop-color="#2DB2E8"/>
<stop offset="0.472656" stop-color="#30AFE8"/>
<stop offset="0.476562" stop-color="#34ACE9"/>
<stop offset="0.480469" stop-color="#37A9EA"/>
<stop offset="0.484375" stop-color="#3AA6EB"/>
<stop offset="0.488281" stop-color="#3DA3EB"/>
<stop offset="0.492188" stop-color="#40A0EC"/>
<stop offset="0.496094" stop-color="#439DED"/>
<stop offset="0.5" stop-color="#469AEE"/>
<stop offset="0.503906" stop-color="#4997EE"/>
<stop offset="0.507812" stop-color="#4C93EF"/>
<stop offset="0.511719" stop-color="#4F90F0"/>
<stop offset="0.515625" stop-color="#528DF1"/>
<stop offset="0.519531" stop-color="#558AF1"/>
<stop offset="0.523438" stop-color="#5887F2"/>
<stop offset="0.527344" stop-color="#5B84F3"/>
<stop offset="0.53125" stop-color="#5E81F4"/>
<stop offset="0.535156" stop-color="#617EF4"/>
<stop offset="0.539062" stop-color="#647BF5"/>
<stop offset="0.542969" stop-color="#6778F6"/>
<stop offset="0.546875" stop-color="#6A74F7"/>
<stop offset="0.550781" stop-color="#6D71F7"/>
<stop offset="0.554688" stop-color="#706EF8"/>
<stop offset="0.558594" stop-color="#736BF9"/>
<stop offset="0.5625" stop-color="#7668FA"/>
<stop offset="0.566406" stop-color="#7A65FA"/>
<stop offset="0.570312" stop-color="#7D62FB"/>
<stop offset="0.574219" stop-color="#805FFC"/>
<stop offset="0.578125" stop-color="#835CFD"/>
<stop offset="0.582031" stop-color="#8659FD"/>
<stop offset="0.585938" stop-color="#8955FE"/>
<stop offset="0.589844" stop-color="#8A54FF"/>
<stop offset="0.59375" stop-color="#8C52FF"/>
<stop offset="0.625" stop-color="#8C52FF"/>
<stop offset="0.75" stop-color="#8C52FF"/>
<stop offset="1" stop-color="#8C52FF"/>
</linearGradient>
<linearGradient id="paint1_linear_241_354" x1="410.546" y1="338.304" x2="615.955" y2="541.758" gradientUnits="userSpaceOnUse">
<stop stop-color="#00BF63"/>
<stop offset="0.25" stop-color="#00BF63"/>
<stop offset="0.253906" stop-color="#01BF64"/>
<stop offset="0.257813" stop-color="#03BF64"/>
<stop offset="0.261719" stop-color="#04C065"/>
<stop offset="0.265625" stop-color="#05C066"/>
<stop offset="0.269531" stop-color="#06C066"/>
<stop offset="0.273438" stop-color="#08C067"/>
<stop offset="0.277344" stop-color="#09C068"/>
<stop offset="0.28125" stop-color="#0AC168"/>
<stop offset="0.285156" stop-color="#0CC169"/>
<stop offset="0.289063" stop-color="#0DC16A"/>
<stop offset="0.292969" stop-color="#0EC16A"/>
<stop offset="0.296875" stop-color="#0FC26B"/>
<stop offset="0.300781" stop-color="#11C26C"/>
<stop offset="0.304688" stop-color="#12C26C"/>
<stop offset="0.308594" stop-color="#13C26D"/>
<stop offset="0.3125" stop-color="#15C26E"/>
<stop offset="0.316406" stop-color="#16C36F"/>
<stop offset="0.320313" stop-color="#17C36F"/>
<stop offset="0.324219" stop-color="#18C370"/>
<stop offset="0.328125" stop-color="#1AC371"/>
<stop offset="0.332031" stop-color="#1BC371"/>
<stop offset="0.335938" stop-color="#1CC472"/>
<stop offset="0.339844" stop-color="#1EC473"/>
<stop offset="0.34375" stop-color="#1FC473"/>
<stop offset="0.347656" stop-color="#20C474"/>
<stop offset="0.351563" stop-color="#21C475"/>
<stop offset="0.355469" stop-color="#23C575"/>
<stop offset="0.359375" stop-color="#24C576"/>
<stop offset="0.363281" stop-color="#25C577"/>
<stop offset="0.367188" stop-color="#27C577"/>
<stop offset="0.371094" stop-color="#28C678"/>
<stop offset="0.375" stop-color="#29C679"/>
<stop offset="0.378906" stop-color="#2AC679"/>
<stop offset="0.382813" stop-color="#2CC67A"/>
<stop offset="0.386719" stop-color="#2DC67B"/>
<stop offset="0.390625" stop-color="#2EC77B"/>
<stop offset="0.394531" stop-color="#30C77C"/>
<stop offset="0.398438" stop-color="#31C77D"/>
<stop offset="0.402344" stop-color="#32C77E"/>
<stop offset="0.40625" stop-color="#33C77E"/>
<stop offset="0.410156" stop-color="#35C87F"/>
<stop offset="0.414063" stop-color="#36C880"/>
<stop offset="0.417969" stop-color="#37C880"/>
<stop offset="0.421875" stop-color="#39C881"/>
<stop offset="0.425781" stop-color="#3AC882"/>
<stop offset="0.429688" stop-color="#3BC982"/>
<stop offset="0.433594" stop-color="#3CC983"/>
<stop offset="0.4375" stop-color="#3EC984"/>
<stop offset="0.441406" stop-color="#3FC984"/>
<stop offset="0.445313" stop-color="#40CA85"/>
<stop offset="0.449219" stop-color="#41CA86"/>
<stop offset="0.453125" stop-color="#43CA86"/>
<stop offset="0.457031" stop-color="#44CA87"/>
<stop offset="0.460938" stop-color="#45CA88"/>
<stop offset="0.464844" stop-color="#47CB88"/>
<stop offset="0.46875" stop-color="#48CB89"/>
<stop offset="0.472656" stop-color="#49CB8A"/>
<stop offset="0.476562" stop-color="#4ACB8A"/>
<stop offset="0.480469" stop-color="#4CCB8B"/>
<stop offset="0.484375" stop-color="#4DCC8C"/>
<stop offset="0.488281" stop-color="#4ECC8D"/>
<stop offset="0.492188" stop-color="#50CC8D"/>
<stop offset="0.496094" stop-color="#51CC8E"/>
<stop offset="0.5" stop-color="#52CC8F"/>
<stop offset="0.503906" stop-color="#53CD8F"/>
<stop offset="0.507812" stop-color="#55CD90"/>
<stop offset="0.511719" stop-color="#56CD91"/>
<stop offset="0.515625" stop-color="#57CD91"/>
<stop offset="0.519531" stop-color="#59CE92"/>
<stop offset="0.523438" stop-color="#5ACE93"/>
<stop offset="0.527344" stop-color="#5BCE93"/>
<stop offset="0.53125" stop-color="#5CCE94"/>
<stop offset="0.535156" stop-color="#5ECE95"/>
<stop offset="0.539063" stop-color="#5FCF95"/>
<stop offset="0.542969" stop-color="#60CF96"/>
<stop offset="0.546875" stop-color="#62CF97"/>
<stop offset="0.550781" stop-color="#63CF97"/>
<stop offset="0.554688" stop-color="#64CF98"/>
<stop offset="0.558594" stop-color="#65D099"/>
<stop offset="0.5625" stop-color="#67D099"/>
<stop offset="0.566406" stop-color="#68D09A"/>
<stop offset="0.570312" stop-color="#69D09B"/>
<stop offset="0.574219" stop-color="#6BD09C"/>
<stop offset="0.578125" stop-color="#6CD19C"/>
<stop offset="0.582031" stop-color="#6DD19D"/>
<stop offset="0.585938" stop-color="#6ED19E"/>
<stop offset="0.589844" stop-color="#70D19E"/>
<stop offset="0.59375" stop-color="#71D19F"/>
<stop offset="0.597656" stop-color="#72D2A0"/>
<stop offset="0.601563" stop-color="#74D2A0"/>
<stop offset="0.605469" stop-color="#75D2A1"/>
<stop offset="0.609375" stop-color="#76D2A2"/>
<stop offset="0.613281" stop-color="#77D3A2"/>
<stop offset="0.617188" stop-color="#79D3A3"/>
<stop offset="0.621094" stop-color="#7AD3A4"/>
<stop offset="0.625" stop-color="#7BD3A4"/>
<stop offset="0.628906" stop-color="#7DD3A5"/>
<stop offset="0.632812" stop-color="#7ED4A6"/>
<stop offset="0.636719" stop-color="#7FD4A6"/>
<stop offset="0.640625" stop-color="#80D4A7"/>
<stop offset="0.644531" stop-color="#82D4A8"/>
<stop offset="0.648438" stop-color="#83D4A8"/>
<stop offset="0.652344" stop-color="#84D5A9"/>
<stop offset="0.65625" stop-color="#86D5AA"/>
<stop offset="0.660156" stop-color="#87D5AB"/>
<stop offset="0.664063" stop-color="#88D5AB"/>
<stop offset="0.667969" stop-color="#89D5AC"/>
<stop offset="0.671875" stop-color="#8BD6AD"/>
<stop offset="0.675781" stop-color="#8CD6AD"/>
<stop offset="0.679688" stop-color="#8DD6AE"/>
<stop offset="0.683594" stop-color="#8FD6AF"/>
<stop offset="0.6875" stop-color="#90D7AF"/>
<stop offset="0.691406" stop-color="#91D7B0"/>
<stop offset="0.695313" stop-color="#92D7B1"/>
<stop offset="0.699219" stop-color="#94D7B1"/>
<stop offset="0.703125" stop-color="#95D7B2"/>
<stop offset="0.707031" stop-color="#96D8B3"/>
<stop offset="0.710938" stop-color="#98D8B3"/>
<stop offset="0.714844" stop-color="#99D8B4"/>
<stop offset="0.71875" stop-color="#9AD8B5"/>
<stop offset="0.722656" stop-color="#9BD8B5"/>
<stop offset="0.726563" stop-color="#9DD9B6"/>
<stop offset="0.730469" stop-color="#9ED9B7"/>
<stop offset="0.734375" stop-color="#9FD9B7"/>
<stop offset="0.738281" stop-color="#A1D9B8"/>
<stop offset="0.742188" stop-color="#A2D9B9"/>
<stop offset="0.746094" stop-color="#A3DAB9"/>
<stop offset="0.75" stop-color="#A4DABA"/>
<stop offset="0.753906" stop-color="#A6DABB"/>
<stop offset="0.757812" stop-color="#A7DABC"/>
<stop offset="0.761719" stop-color="#A8DBBC"/>
<stop offset="0.765625" stop-color="#AADBBD"/>
<stop offset="0.769531" stop-color="#ABDBBE"/>
<stop offset="0.773438" stop-color="#ACDBBE"/>
<stop offset="0.777344" stop-color="#ADDBBF"/>
<stop offset="0.78125" stop-color="#AFDCC0"/>
<stop offset="0.785156" stop-color="#B0DCC0"/>
<stop offset="0.789063" stop-color="#B1DCC1"/>
<stop offset="0.792969" stop-color="#B2DCC2"/>
<stop offset="0.796875" stop-color="#B4DCC2"/>
<stop offset="0.800781" stop-color="#B5DDC3"/>
<stop offset="0.804688" stop-color="#B6DDC4"/>
<stop offset="0.808594" stop-color="#B8DDC4"/>
<stop offset="0.8125" stop-color="#B9DDC5"/>
<stop offset="0.816406" stop-color="#BADDC6"/>
<stop offset="0.820313" stop-color="#BBDEC6"/>
<stop offset="0.824219" stop-color="#BDDEC7"/>
<stop offset="0.828125" stop-color="#BEDEC8"/>
<stop offset="0.832031" stop-color="#BFDEC8"/>
<stop offset="0.835938" stop-color="#C1DFC9"/>
<stop offset="0.839844" stop-color="#C2DFCA"/>
<stop offset="0.84375" stop-color="#C3DFCB"/>
<stop offset="0.847656" stop-color="#C4DFCB"/>
<stop offset="0.851562" stop-color="#C6DFCC"/>
<stop offset="0.855469" stop-color="#C7E0CD"/>
<stop offset="0.859375" stop-color="#C8E0CD"/>
<stop offset="0.863281" stop-color="#CAE0CE"/>
<stop offset="0.867188" stop-color="#CBE0CF"/>
<stop offset="0.871094" stop-color="#CCE0CF"/>
<stop offset="0.875" stop-color="#CDE1D0"/>
<stop offset="0.878906" stop-color="#CFE1D1"/>
<stop offset="0.882813" stop-color="#D0E1D1"/>
<stop offset="0.886719" stop-color="#D1E1D2"/>
<stop offset="0.890625" stop-color="#D3E1D3"/>
<stop offset="0.894531" stop-color="#D4E2D3"/>
<stop offset="0.898438" stop-color="#D5E2D4"/>
<stop offset="0.902344" stop-color="#D6E2D5"/>
<stop offset="0.90625" stop-color="#D8E2D5"/>
<stop offset="0.910156" stop-color="#D9E3D6"/>
<stop offset="0.914063" stop-color="#DAE3D7"/>
<stop offset="0.917969" stop-color="#DCE3D7"/>
<stop offset="0.921875" stop-color="#DDE3D8"/>
<stop offset="0.925781" stop-color="#DEE3D9"/>
<stop offset="0.929688" stop-color="#DFE4DA"/>
<stop offset="0.933594" stop-color="#E1E4DA"/>
<stop offset="0.9375" stop-color="#E2E4DB"/>
<stop offset="0.941406" stop-color="#E3E4DC"/>
<stop offset="0.945312" stop-color="#E5E4DC"/>
<stop offset="0.949219" stop-color="#E6E5DD"/>
<stop offset="0.953125" stop-color="#E7E5DE"/>
<stop offset="0.96875" stop-color="#E8E5DE"/>
<stop offset="1" stop-color="#E8E5DE"/>
</linearGradient>
<linearGradient id="paint2_linear_241_354" x1="135.414" y1="567.732" x2="628.984" y2="158.768" gradientUnits="userSpaceOnUse">
<stop stop-color="#AF209C"/>
<stop offset="0.25" stop-color="#AF209C"/>
<stop offset="0.3125" stop-color="#AF209C"/>
<stop offset="0.320312" stop-color="#AF209C"/>
<stop offset="0.324219" stop-color="#AF219B"/>
<stop offset="0.328125" stop-color="#B0229A"/>
<stop offset="0.332031" stop-color="#B02499"/>
<stop offset="0.335938" stop-color="#B12598"/>
<stop offset="0.339844" stop-color="#B22797"/>
<stop offset="0.34375" stop-color="#B22896"/>
<stop offset="0.347656" stop-color="#B32995"/>
<stop offset="0.351562" stop-color="#B32B94"/>
<stop offset="0.355469" stop-color="#B42C93"/>
<stop offset="0.359375" stop-color="#B42E92"/>
<stop offset="0.363281" stop-color="#B52F91"/>
<stop offset="0.367188" stop-color="#B53090"/>
<stop offset="0.371094" stop-color="#B6328F"/>
<stop offset="0.375" stop-color="#B7338E"/>
<stop offset="0.378906" stop-color="#B7358D"/>
<stop offset="0.382813" stop-color="#B8368C"/>
<stop offset="0.386719" stop-color="#B8388B"/>
<stop offset="0.390625" stop-color="#B9398A"/>
<stop offset="0.394531" stop-color="#B93A88"/>
<stop offset="0.398438" stop-color="#BA3C87"/>
<stop offset="0.402344" stop-color="#BA3D86"/>
<stop offset="0.40625" stop-color="#BB3F85"/>
<stop offset="0.410156" stop-color="#BC4084"/>
<stop offset="0.414062" stop-color="#BC4183"/>
<stop offset="0.417969" stop-color="#BD4382"/>
<stop offset="0.421875" stop-color="#BD4481"/>
<stop offset="0.425781" stop-color="#BE4680"/>
<stop offset="0.429688" stop-color="#BE477F"/>
<stop offset="0.433594" stop-color="#BF487E"/>
<stop offset="0.4375" stop-color="#C04A7D"/>
<stop offset="0.441406" stop-color="#C04B7C"/>
<stop offset="0.445312" stop-color="#C14D7B"/>
<stop offset="0.449219" stop-color="#C14E7A"/>
<stop offset="0.453125" stop-color="#C24F79"/>
<stop offset="0.457031" stop-color="#C25178"/>
<stop offset="0.460938" stop-color="#C35277"/>
<stop offset="0.464844" stop-color="#C35476"/>
<stop offset="0.46875" stop-color="#C45575"/>
<stop offset="0.472656" stop-color="#C55774"/>
<stop offset="0.476562" stop-color="#C55873"/>
<stop offset="0.480469" stop-color="#C65972"/>
<stop offset="0.484375" stop-color="#C65B71"/>
<stop offset="0.488281" stop-color="#C75C6F"/>
<stop offset="0.492188" stop-color="#C75E6E"/>
<stop offset="0.496094" stop-color="#C85F6D"/>
<stop offset="0.5" stop-color="#C8606C"/>
<stop offset="0.503906" stop-color="#C9626B"/>
<stop offset="0.507812" stop-color="#CA636A"/>
<stop offset="0.511719" stop-color="#CA6569"/>
<stop offset="0.515625" stop-color="#CB6668"/>
<stop offset="0.519531" stop-color="#CB6767"/>
<stop offset="0.523438" stop-color="#CC6966"/>
<stop offset="0.527344" stop-color="#CC6A65"/>
<stop offset="0.53125" stop-color="#CD6C64"/>
<stop offset="0.535156" stop-color="#CD6D63"/>
<stop offset="0.539062" stop-color="#CE6E62"/>
<stop offset="0.542969" stop-color="#CF7061"/>
<stop offset="0.546875" stop-color="#CF7160"/>
<stop offset="0.550781" stop-color="#D0735F"/>
<stop offset="0.554688" stop-color="#D0745E"/>
<stop offset="0.558594" stop-color="#D1765D"/>
<stop offset="0.5625" stop-color="#D1775C"/>
<stop offset="0.566406" stop-color="#D2785B"/>
<stop offset="0.570313" stop-color="#D27A5A"/>
<stop offset="0.574219" stop-color="#D37B59"/>
<stop offset="0.578125" stop-color="#D47D58"/>
<stop offset="0.582031" stop-color="#D47E56"/>
<stop offset="0.585938" stop-color="#D57F55"/>
<stop offset="0.589844" stop-color="#D58154"/>
<stop offset="0.59375" stop-color="#D68253"/>
<stop offset="0.597656" stop-color="#D68452"/>
<stop offset="0.601562" stop-color="#D78551"/>
<stop offset="0.605469" stop-color="#D78650"/>
<stop offset="0.609375" stop-color="#D8884F"/>
<stop offset="0.613281" stop-color="#D9894E"/>
<stop offset="0.617188" stop-color="#D98B4D"/>
<stop offset="0.621094" stop-color="#DA8C4C"/>
<stop offset="0.625" stop-color="#DA8E4B"/>
<stop offset="0.628906" stop-color="#DB8F4A"/>
<stop offset="0.632813" stop-color="#DB9049"/>
<stop offset="0.636719" stop-color="#DC9248"/>
<stop offset="0.640625" stop-color="#DC9347"/>
<stop offset="0.644531" stop-color="#DD9546"/>
<stop offset="0.648438" stop-color="#DE9645"/>
<stop offset="0.652344" stop-color="#DE9744"/>
<stop offset="0.65625" stop-color="#DF9943"/>
<stop offset="0.660156" stop-color="#DF9A42"/>
<stop offset="0.664062" stop-color="#E09C41"/>
<stop offset="0.667969" stop-color="#E09D40"/>
<stop offset="0.671875" stop-color="#E19E3E"/>
<stop offset="0.675781" stop-color="#E1A03D"/>
<stop offset="0.679688" stop-color="#E2A13C"/>
<stop offset="0.683594" stop-color="#E3A33B"/>
<stop offset="0.6875" stop-color="#E3A43A"/>
<stop offset="0.691406" stop-color="#E4A539"/>
<stop offset="0.695313" stop-color="#E4A738"/>
<stop offset="0.699219" stop-color="#E5A837"/>
<stop offset="0.703125" stop-color="#E5AA36"/>
<stop offset="0.707031" stop-color="#E6AB35"/>
<stop offset="0.710938" stop-color="#E7AD34"/>
<stop offset="0.714844" stop-color="#E7AE33"/>
<stop offset="0.71875" stop-color="#E8AF32"/>
<stop offset="0.722656" stop-color="#E8B131"/>
<stop offset="0.726562" stop-color="#E9B230"/>
<stop offset="0.730469" stop-color="#E9B42F"/>
<stop offset="0.734375" stop-color="#EAB52E"/>
<stop offset="0.738281" stop-color="#EAB62D"/>
<stop offset="0.742188" stop-color="#EBB82C"/>
<stop offset="0.746094" stop-color="#ECB92B"/>
<stop offset="0.75" stop-color="#ECBB2A"/>
<stop offset="0.753906" stop-color="#EDBC29"/>
<stop offset="0.757813" stop-color="#EDBD28"/>
<stop offset="0.761719" stop-color="#EEBF27"/>
<stop offset="0.765625" stop-color="#EEC025"/>
<stop offset="0.769531" stop-color="#EFC224"/>
<stop offset="0.773438" stop-color="#EFC323"/>
<stop offset="0.777344" stop-color="#F0C422"/>
<stop offset="0.78125" stop-color="#F1C621"/>
<stop offset="0.785156" stop-color="#F1C720"/>
<stop offset="0.789062" stop-color="#F2C91F"/>
<stop offset="0.792969" stop-color="#F2CA1E"/>
<stop offset="0.796875" stop-color="#F3CC1D"/>
<stop offset="0.800781" stop-color="#F3CD1C"/>
<stop offset="0.804688" stop-color="#F4CE1B"/>
<stop offset="0.808594" stop-color="#F4D01A"/>
<stop offset="0.8125" stop-color="#F5D119"/>
<stop offset="0.816406" stop-color="#F6D318"/>
<stop offset="0.820312" stop-color="#F6D417"/>
<stop offset="0.828125" stop-color="#F6D417"/>
<stop offset="0.84375" stop-color="#F6D417"/>
<stop offset="0.875" stop-color="#F6D417"/>
<stop offset="1" stop-color="#F6D417"/>
</linearGradient>
</defs>
</svg>
